# xmcd
#
# Track frame offsets:
#	150
#	11480
#	23919
#	47170
#	60097
#	70562
#	84445
#	96720
#	108352
#	120597
#	134395
#	147532
#
# Disc length: 2133 seconds
#
# Revision: 1
# Processed by: cddbd v1.4PL0 Copyright (c) Steve Scherf et al.
# Submitted via: audiograbber 1.80.04
#
DISCID=9e08530c
DTITLE=IDG Books Worldwide - Blues For Dummies
DYEAR=1998
DGENRE=Blues
TTITLE0=Muddy Waters - I'm Your Hoochie Coochie Man
TTITLE1=Little Walter - Juke
TTITLE2=B.b. King - Sweet Little Angel (Live Version)
TTITLE3=Howlin' Wolf - Killing Floor
TTITLE4=Buddy Guy - First Time I Met The Blues
TTITLE5=Albert Collins - Frosty
TTITLE6=Bobby Bland - I Pity The Fool
TTITLE7=Clarence 'Gatemouth' Brown - Okie Dokie Stomp
TTITLE8=Lightnin' Slim - Rooster Blues
TTITLE9=John Lee Hooker - Walkin' The Boogie (Alternate Take)
TTITLE10=Lightnin' Hopkins - I'm Wild About You Baby
TTITLE11=Louis Jordan and His Tympany Five - Let The Good Times Roll
EXTD=Compilation CD from the back of Blues for Dummies
EXTT0=
EXTT1=
EXTT2=
EXTT3=
EXTT4=
EXTT5=
EXTT6=
EXTT7=
EXTT8=
EXTT9=
EXTT10=
EXTT11=
PLAYORDER=
